<svg width="312.256" height="70.997" viewBox="0 0 312.256 70.997" xmlns="http://www.w3.org/2000/svg"><g id="svgGroup" stroke-linecap="round" fill-rule="evenodd" font-size="9pt" stroke="#000" stroke-width="0.25mm" fill="#000" style="stroke:#000;stroke-width:0.25mm;fill:#000"><path d="M 69.971 20.997 L 69.971 70.997 L 56.006 70.997 L 56.006 20.997 A 6.718 6.718 0 0 0 55.529 18.462 A 6.481 6.481 0 0 0 55.445 18.262 A 7.267 7.267 0 0 0 53.931 16.04 A 6.924 6.924 0 0 0 51.709 14.551 A 6.898 6.898 0 0 0 49.157 14.016 A 7.893 7.893 0 0 0 48.975 14.014 A 7.042 7.042 0 0 0 46.662 14.389 A 6.637 6.637 0 0 0 46.241 14.551 Q 44.971 15.088 44.019 16.04 A 6.924 6.924 0 0 0 42.53 18.262 A 6.898 6.898 0 0 0 41.995 20.814 A 7.893 7.893 0 0 0 41.993 20.997 L 41.993 70.997 L 27.979 70.997 L 27.979 20.997 A 7.042 7.042 0 0 0 27.604 18.684 A 6.637 6.637 0 0 0 27.442 18.262 Q 26.905 16.993 25.953 16.04 A 6.924 6.924 0 0 0 23.731 14.551 A 6.898 6.898 0 0 0 21.179 14.016 A 7.893 7.893 0 0 0 20.997 14.014 A 7.042 7.042 0 0 0 18.684 14.389 A 6.637 6.637 0 0 0 18.262 14.551 Q 16.993 15.088 16.04 16.04 A 6.924 6.924 0 0 0 14.551 18.262 A 6.898 6.898 0 0 0 14.016 20.814 A 7.893 7.893 0 0 0 14.014 20.997 L 14.014 70.997 L 0 70.997 L 0 20.997 A 20.617 20.617 0 0 1 1.636 12.818 Q 3.272 8.985 6.128 6.128 A 21.033 21.033 0 0 1 12.818 1.636 Q 16.651 0 20.997 0 Q 24.903 0 28.516 1.392 A 20.4 20.4 0 0 1 35.01 5.42 A 20.471 20.471 0 0 1 41.48 1.392 Q 45.069 0 48.975 0 A 20.617 20.617 0 0 1 57.154 1.636 Q 60.987 3.272 63.843 6.128 A 21.033 21.033 0 0 1 68.335 12.818 Q 69.971 16.651 69.971 20.997 Z M 186.768 56.983 L 186.768 70.997 L 138.77 70.997 L 138.77 0.977 L 186.768 0.977 L 186.768 14.991 L 152.784 14.991 L 152.784 29.004 L 175.782 29.004 L 175.782 43.018 L 152.784 43.018 L 152.784 56.983 L 186.768 56.983 Z M 251.807 29.004 L 251.807 70.997 L 237.793 70.997 L 237.793 56.983 L 209.766 56.983 L 209.766 70.997 L 195.801 70.997 L 195.801 29.004 Q 195.801 23.194 197.998 18.091 A 28.502 28.502 0 0 1 203.98 9.18 A 28.002 28.002 0 0 1 212.867 3.174 Q 217.969 0.977 223.78 0.977 Q 229.59 0.977 234.693 3.174 Q 239.795 5.372 243.604 9.18 Q 247.413 12.989 249.61 18.091 Q 251.807 23.194 251.807 29.004 Z M 291.26 14.991 L 291.26 70.997 L 277.295 70.997 L 277.295 14.991 L 256.25 14.991 L 256.25 0.977 L 312.256 0.977 L 312.256 14.991 L 291.26 14.991 Z M 131.495 56.983 L 131.495 70.997 L 82.471 70.997 L 82.471 0.977 L 96.485 0.977 L 96.485 56.983 L 131.495 56.983 Z M 209.766 43.018 L 237.793 43.018 L 237.793 29.004 Q 237.793 26.123 236.695 23.56 A 14.109 14.109 0 0 0 233.692 19.092 Q 231.788 17.188 229.224 16.089 Q 226.661 14.991 223.78 14.991 Q 220.899 14.991 218.335 16.089 A 14.109 14.109 0 0 0 213.868 19.092 Q 211.963 20.997 210.865 23.56 Q 209.766 26.123 209.766 29.004 L 209.766 43.018 Z" vector-effect="non-scaling-stroke"/></g></svg>