<svg version="1.1" xmlns="http://www.w3.org/2000/svg" xmlns:xlink="http://www.w3.org/1999/xlink" width="598" height="394" viewBox="0,0,598,394"><g transform="translate(59,17)"><g data-paper-data="{&quot;isPaintingLayer&quot;:true}" stroke-linejoin="miter" stroke-miterlimit="10" stroke-dasharray="" stroke-dashoffset="0" style="mix-blend-mode: normal"><path d="M-59,377v-394h598v394z" fill="#000000" fill-rule="nonzero" stroke="none" stroke-width="NaN" stroke-linecap="butt"/><g fill="#ffffff"><path d="M179.62152,179.04478v39.43177h-9.80578v-39.43176c0.00438,-0.68444 -0.10935,-1.36335 -0.33493,-1.99919c-0.01888,-0.05294 -0.03854,-0.10553 -0.05898,-0.15772c-0.25422,-0.6533 -0.61476,-1.24759 -1.06309,-1.75235c-0.44717,-0.5016 -0.97714,-0.90047 -1.56022,-1.17428c-0.56799,-0.26731 -1.17616,-0.41051 -1.79193,-0.42192c-0.04259,-0.00108 -0.08518,-0.0016 -0.12779,-0.00158c-0.55228,-0.00399 -1.10125,0.09598 -1.62411,0.29574c-0.0998,0.03881 -0.1984,0.08142 -0.29561,0.12776c-0.5945,0.28233 -1.11458,0.67375 -1.56022,1.17428c-0.44661,0.50224 -0.80174,1.09747 -1.04552,1.75235c-0.238,0.63794 -0.36549,1.321 -0.37566,2.01259c-0.00097,0.0481 -0.00143,0.09621 -0.00141,0.14432v39.43177h-9.84018v-39.43176c0.00355,-0.62028 -0.08545,-1.23686 -0.26331,-1.82411c-0.03454,-0.11235 -0.07248,-0.22335 -0.11375,-0.3328c-0.25137,-0.66719 -0.59989,-1.25131 -1.04553,-1.75235c-0.44717,-0.5016 -0.97714,-0.90047 -1.56021,-1.17428c-0.56799,-0.26731 -1.17616,-0.41051 -1.79193,-0.42192c-0.04259,-0.00108 -0.08519,-0.0016 -0.12779,-0.00158c-0.55228,-0.00399 -1.10125,0.09598 -1.62411,0.29574c-0.10003,0.0388 -0.19887,0.0814 -0.29632,0.12776c-0.59403,0.28233 -1.1141,0.67375 -1.56021,1.17428c-0.44661,0.50224 -0.80174,1.09747 -1.04553,1.75235c-0.238,0.63794 -0.3655,1.321 -0.37566,2.01259c-0.00097,0.0481 -0.00143,0.09621 -0.00141,0.14432v39.43177h-9.84018v-39.43176c-0.01237,-2.21553 0.37855,-4.41052 1.14875,-6.45025c0.76583,-2.01523 1.81721,-3.77388 3.15413,-5.27597c1.34792,-1.50985 2.94302,-2.71278 4.69751,-3.54255c1.79427,-0.86014 3.70862,-1.29021 5.74303,-1.29021c1.82844,0 3.58831,0.36592 5.2796,1.09778c1.68455,0.72682 3.23164,1.80461 4.55987,3.17663c1.32395,-1.36894 2.86499,-2.44649 4.54303,-3.17663c1.68005,-0.73186 3.43431,-1.09778 5.26275,-1.09778c1.97261,-0.01389 3.92695,0.42516 5.74303,1.29021c1.79427,0.86014 3.35987,2.04099 4.6968,3.54255c1.3443,1.5139 2.41534,3.30543 3.15414,5.27597c0.76584,2.01523 1.14875,4.1653 1.14875,6.45025zM261.63262,207.42461v11.05194h-33.70265v-55.22024h33.70265v11.05194h-23.86247v11.05115h16.14845v11.05194h-16.14845v11.01329zM307.30091,185.35938v33.11716h-9.84019v-11.05193h-19.67965v11.05194h-9.80578v-33.11716c0,-3.05464 0.51422,-5.92345 1.54266,-8.60638c0.99126,-2.62012 2.41665,-5.0049 4.20037,-7.02753c1.78887,-2.01572 3.90779,-3.62407 6.24016,-4.73654c2.38831,-1.15509 4.94256,-1.73263 7.66276,-1.73263c2.71973,0 5.27398,0.57754 7.66276,1.73263c2.38831,1.15561 4.47397,2.73447 6.25702,4.73654c1.78304,2.00261 3.18878,4.34512 4.21722,7.02753c1.02844,2.68294 1.54266,5.55174 1.54266,8.60638zM335.00354,174.30824v44.16831h-9.80578v-44.1683h-14.77712v-11.05193h39.32561v11.05194zM222.8217,207.42461v11.05194h-34.42308v-55.22024h9.84018v44.16831zM277.78108,196.41132h19.67965v-11.05193c0,-1.51471 -0.25699,-2.94581 -0.77097,-4.29333c-0.495,-1.31566 -1.21089,-2.51197 -2.10861,-3.52363c-0.89128,-1.00104 -1.93705,-1.79046 -3.13729,-2.36827c-1.19977,-0.57728 -2.47397,-0.86592 -3.8226,-0.86592c-1.34863,0 -2.62306,0.28864 -3.82331,0.86592c-1.17115,0.55604 -2.23605,1.36009 -3.13658,2.36827c-0.89175,1.00156 -1.59463,2.17611 -2.10861,3.52363c-0.51445,1.34752 -0.77168,2.77862 -0.77168,4.29333z" fill-rule="evenodd" stroke="#ffffff" stroke-width="6.5" stroke-linecap="round"/><path d="M128.28473,220.98101l-14,-10.33334l17.66667,-1v11.33334z" fill-rule="nonzero" stroke="#ffffff" stroke-width="0" stroke-linecap="butt"/><path d="M126.28473,175.64767v-16h11.66667v16z" fill-rule="nonzero" stroke="#ffffff" stroke-width="0" stroke-linecap="butt"/><path d="M140.9514,204.31435h6.66666v16.33333z" fill-rule="nonzero" stroke="#ffffff" stroke-width="0" stroke-linecap="butt"/><path d="M160.9514,204.31435h6.66666v16.33333z" fill-rule="nonzero" stroke="#ffffff" stroke-width="0" stroke-linecap="butt"/><path d="M138.61805,174.81435c0,-11.13774 9.02892,-20.16667 20.16666,-20.16667c11.13774,0 20.16667,9.02893 20.16667,20.16667c0,11.13774 -9.02893,20.16667 -20.16667,20.16667c-11.13774,0 -20.16666,-9.02893 -20.16666,-20.16667z" fill-rule="nonzero" stroke="#ffffff" stroke-width="0" stroke-linecap="butt"/><path d="M175.61806,204.64768h10.33334v16z" fill-rule="nonzero" stroke="#ffffff" stroke-width="0" stroke-linecap="butt"/><path d="M200.4514,160.81434h-4.95834v-10z" data-paper-data="{&quot;index&quot;:null}" fill-rule="nonzero" stroke="#ffffff" stroke-width="0" stroke-linecap="butt"/><path d="M212.92015,220.39768v-25.33333h22.33333l-9.66666,25.33333z" fill-rule="nonzero" stroke="#ff0000" stroke-width="0" stroke-linecap="butt"/><path d="M263.5868,176.39767v-9.6h3.13333z" fill-rule="nonzero" stroke="#ff0000" stroke-width="0" stroke-linecap="butt"/><path d="M253.05348,203.79768v-15h5.2z" fill-rule="nonzero" stroke="#ff0000" stroke-width="0" stroke-linecap="butt"/><path d="M263.85348,221.19768v-15.8h16.6z" fill-rule="nonzero" stroke="#ff0000" stroke-width="0" stroke-linecap="butt"/><path d="M267.65347,175.49768c0,-2.40647 1.11402,-6.79946 2.61383,-8.45075c1.70131,-1.87314 4.15639,-1.44925 6.88617,-1.44925c5.13625,0 3.5,4.36375 3.5,9.5c0,5.13625 1.63625,9.1 -3.5,9.1c-5.13625,0 -9.5,-3.56375 -9.5,-8.7z" fill-rule="nonzero" stroke="#ff0000" stroke-width="0" stroke-linecap="butt"/><path d="M280.25304,221.14768v-10.25h4.65042z" data-paper-data="{&quot;index&quot;:null}" fill-rule="nonzero" stroke="#ff0000" stroke-width="0" stroke-linecap="butt"/><path d="M309.63798,220.83518v-9.875h8.32163z" fill-rule="nonzero" stroke="#ff0000" stroke-width="0" stroke-linecap="butt"/><path d="M337.31489,220.96018v-10h11.89474z" fill-rule="nonzero" stroke="#ff0000" stroke-width="0" stroke-linecap="butt"/><path d="M303.49305,164.48101l13.25,-13.25v13.25z" fill-rule="nonzero" stroke="#ff0000" stroke-width="0" stroke-linecap="butt"/><path d="M365.71528,166.73101l-13.58333,10.25v-10.25z" data-paper-data="{&quot;index&quot;:null}" fill-rule="nonzero" stroke="#ff0000" stroke-width="0" stroke-linecap="butt"/><path d="M172.17178,169.04478v39.43177h-11.01329v-39.43177c0.00492,-0.68444 -0.12282,-1.36335 -0.37618,-1.99919c-0.0212,-0.05294 -0.04328,-0.10553 -0.06624,-0.15772c-0.28553,-0.6533 -0.69046,-1.24759 -1.194,-1.75235c-0.50224,-0.5016 -1.09746,-0.90047 -1.75235,-1.17428c-0.63794,-0.26731 -1.32101,-0.41051 -2.0126,-0.42192c-0.04783,-0.00108 -0.09568,-0.0016 -0.14353,-0.00158c-0.62028,-0.00399 -1.23686,0.09598 -1.82412,0.29574c-0.11209,0.03881 -0.22282,0.08142 -0.33201,0.12776c-0.66771,0.28233 -1.25183,0.67375 -1.75235,1.17428c-0.5016,0.50224 -0.90046,1.09746 -1.17427,1.75235c-0.26731,0.63794 -0.41051,1.32101 -0.42192,2.0126c-0.00108,0.0481 -0.00161,0.09621 -0.00158,0.14432v39.43177h-11.05193v-39.43177c0.00399,-0.62029 -0.09598,-1.23685 -0.29574,-1.82411c-0.03879,-0.11236 -0.0814,-0.22335 -0.12776,-0.33281c-0.28233,-0.66719 -0.67376,-1.25131 -1.17428,-1.75235c-0.50224,-0.5016 -1.09746,-0.90047 -1.75234,-1.17428c-0.63794,-0.26731 -1.32101,-0.41051 -2.0126,-0.42192c-0.04783,-0.00108 -0.09568,-0.0016 -0.14353,-0.00158c-0.62028,-0.00399 -1.23686,0.09598 -1.82411,0.29574c-0.11235,0.0388 -0.22335,0.0814 -0.3328,0.12776c-0.66719,0.28233 -1.2513,0.67375 -1.75235,1.17428c-0.5016,0.50224 -0.90047,1.09746 -1.17428,1.75235c-0.26731,0.63794 -0.41051,1.32101 -0.42192,2.0126c-0.00109,0.0481 -0.00161,0.09621 -0.00158,0.14432v39.43177h-11.05193v-39.43177c-0.0139,-2.21553 0.42516,-4.41052 1.29021,-6.45024c0.86014,-2.01523 2.04099,-3.77388 3.54255,-5.27597c1.5139,-1.50985 3.30543,-2.71278 5.27597,-3.54255c2.01523,-0.86014 4.16531,-1.29021 6.45025,-1.29021c2.05361,0 4.03019,0.36592 5.92975,1.09778c1.89199,0.72682 3.6296,1.80461 5.1214,3.17663c1.48698,-1.36894 3.2178,-2.44649 5.10247,-3.17663c1.88694,-0.73186 3.85722,-1.09778 5.91082,-1.09778c2.21553,-0.01389 4.41053,0.42516 6.45024,1.29021c2.01522,0.86014 3.77362,2.04099 5.27518,3.54255c1.50985,1.5139 2.71277,3.30543 3.54255,5.27597c0.86014,2.01523 1.29021,4.1653 1.29021,6.45024zM264.282,197.42461v11.05194h-37.85292v-55.22024h37.85292v11.05194h-26.80098v11.05114h18.13703v11.05194h-18.13703v11.01329zM315.57403,175.35938v33.11716h-11.05193v-11.05193h-22.10308v11.05194h-11.01329v-33.11716c0,-3.05465 0.57754,-5.92344 1.73263,-8.60638c1.11332,-2.62012 2.71425,-5.0049 4.71762,-7.02753c2.00916,-2.01572 4.38901,-3.62407 7.0086,-4.73654c2.68241,-1.15509 5.5512,-1.73263 8.60638,-1.73263c3.05464,0 5.92345,0.57754 8.60638,1.73263c2.68241,1.15561 5.02491,2.73447 7.02752,4.73654c2.00261,2.00261 3.58146,4.34512 4.73655,7.02753c1.15509,2.68294 1.73263,5.55173 1.73263,8.60638zM346.68807,164.30824v44.16831h-11.01329v-44.1683h-16.59683v-11.05193h44.16831v11.05194zM220.69177,197.42461v11.05194h-38.66206v-55.22024h11.05194v44.16831zM282.41904,186.41132h22.10308v-11.05194c0,-1.5147 -0.28864,-2.94581 -0.86592,-4.29333c-0.55595,-1.31565 -1.36001,-2.51197 -2.36827,-3.52363c-1.00104,-1.00104 -2.17559,-1.79046 -3.52363,-2.36827c-1.34751,-0.57728 -2.77862,-0.86592 -4.29333,-0.86592c-1.5147,0 -2.94608,0.28864 -4.29412,0.86592c-1.31538,0.55604 -2.51141,1.36009 -3.52283,2.36827c-1.00157,1.00156 -1.791,2.17611 -2.36827,3.52363c-0.57781,1.34752 -0.86671,2.77862 -0.86671,4.29333z" fill-rule="evenodd" stroke="#ffffff" stroke-width="6.5" stroke-linecap="round"/></g><path d="M179.50349,178.56377v39.43177h-9.80578v-39.43177c0.00438,-0.68444 -0.10935,-1.36335 -0.33493,-1.99919c-0.01888,-0.05294 -0.03854,-0.10553 -0.05898,-0.15772c-0.25422,-0.6533 -0.61476,-1.24759 -1.06309,-1.75235c-0.44717,-0.5016 -0.97714,-0.90047 -1.56022,-1.17428c-0.56799,-0.26731 -1.17616,-0.41051 -1.79193,-0.42192c-0.04259,-0.00107 -0.08518,-0.0016 -0.12779,-0.00158c-0.55228,-0.00399 -1.10125,0.09598 -1.62411,0.29574c-0.0998,0.03881 -0.1984,0.08142 -0.29561,0.12776c-0.5945,0.28233 -1.11458,0.67376 -1.56022,1.17428c-0.44661,0.50224 -0.80174,1.09746 -1.04552,1.75235c-0.238,0.63794 -0.36549,1.32101 -0.37566,2.0126c-0.00097,0.0481 -0.00143,0.09621 -0.00141,0.14432v39.43177h-9.84018l-9,-7.66222l9,-31.76955c0.00355,-0.62028 -0.08545,-1.23685 -0.26331,-1.82411c-0.03454,-0.11236 -0.07248,-0.22335 -0.11375,-0.33281c-0.25137,-0.66718 -0.59989,-1.2513 -1.04553,-1.75235c-0.44717,-0.5016 -0.97714,-0.90047 -1.56021,-1.17428c-0.56799,-0.26731 -1.17616,-0.41051 -1.79193,-0.42192c-0.04259,-0.00107 -0.08519,-0.0016 -0.12779,-0.00158c-0.55228,-0.00399 -1.10125,0.09598 -1.62411,0.29574c-0.10003,0.03879 -0.19887,0.0814 -0.29632,0.12776c-0.59403,0.28233 -1.1141,0.67376 -1.56021,1.17428c-0.44661,0.50224 -0.80174,1.09746 -1.04553,1.75235c-0.238,0.63794 -0.3655,1.32101 -0.37566,2.0126c-0.00097,0.0481 -0.00143,0.09621 -0.00141,0.14432v39.43177h-9.84018v-39.43177c-0.01237,-2.21553 0.37854,-4.41053 1.14875,-6.45024c0.76584,-2.01522 1.81721,-3.77389 3.15413,-5.27597c1.34792,-1.50985 2.94302,-2.71277 4.69751,-3.54255c1.79427,-0.86014 3.70862,-1.29021 5.74303,-1.29021c1.82844,0 3.58831,0.36592 5.2796,1.09778c1.68455,0.72682 3.23164,1.80461 4.55987,3.17663c1.32395,-1.36894 2.86499,-2.44649 4.54303,-3.17663c1.68005,-0.73185 3.43431,-1.09778 5.26275,-1.09778c1.97261,-0.01389 3.92695,0.42516 5.74303,1.29021c1.79427,0.86014 3.35987,2.04099 4.6968,3.54255c1.3443,1.5139 2.41534,3.30543 3.15414,5.27597c0.76584,2.01522 1.14875,4.1653 1.14875,6.45024zM261.51457,206.9436v11.05194h-33.70265v-55.22024h33.70265v11.05193h-23.86247v11.05114h16.14845v11.05194h-16.14845v11.01329zM307.18288,184.87837v33.11716h-9.84019v-11.05194h-19.67965v11.05194h-9.80578v-33.11716c0,-3.05464 0.51422,-5.92345 1.54266,-8.60638c0.99126,-2.62012 2.41665,-5.0049 4.20037,-7.02752c1.78887,-2.01572 3.90779,-3.62407 6.24016,-4.73654c2.38831,-1.15509 4.94256,-1.73263 7.66276,-1.73263c2.71973,0 5.27398,0.57754 7.66276,1.73263c2.38831,1.15562 4.47397,2.73446 6.25702,4.73654c1.78304,2.00261 3.18878,4.34511 4.21722,7.02752c1.02844,2.68293 1.54266,5.55174 1.54266,8.60638zM334.88551,173.82723v44.16831h-9.80578v-44.1683h-14.77712v-11.05193h39.32561v11.05193zM222.70367,206.9436v11.05194h-34.42308v-55.22024h9.84018v44.1683zM277.66303,195.93031h19.67965v-11.05194c0,-1.5147 -0.25699,-2.94582 -0.77097,-4.29333c-0.495,-1.31565 -1.21089,-2.51197 -2.10861,-3.52362c-0.89128,-1.00104 -1.93705,-1.79047 -3.13729,-2.36827c-1.19977,-0.57728 -2.47397,-0.86592 -3.8226,-0.86592c-1.34863,0 -2.62306,0.28864 -3.82331,0.86592c-1.17115,0.55604 -2.23605,1.36009 -3.13658,2.36827c-0.89175,1.00156 -1.59463,2.17611 -2.10861,3.52362c-0.51445,1.34751 -0.77168,2.77863 -0.77168,4.29333z" fill="#d40000" fill-rule="evenodd" stroke="#d40000" stroke-width="5" stroke-linecap="round"/><path d="M128.16669,220.5l-14,-10.33334l17.66667,-1v11.33334z" fill="#d40000" fill-rule="nonzero" stroke="none" stroke-width="0" stroke-linecap="butt"/><path d="M126.16669,175.16667v-16h11.66667v16z" fill="#d40000" fill-rule="nonzero" stroke="none" stroke-width="0" stroke-linecap="butt"/><path d="M140.83336,203.83334h6.66666v16.33333z" fill="#d40000" fill-rule="nonzero" stroke="none" stroke-width="0" stroke-linecap="butt"/><path d="M160.83336,210.16667l6.66666,-6.33333v16.33333z" fill="#d40000" fill-rule="nonzero" stroke="none" stroke-width="0" stroke-linecap="butt"/><path d="M138.5,174.33334c0,-11.13774 9.02892,-20.16667 20.16666,-20.16667c11.13774,0 20.16667,9.02893 20.16667,20.16667c0,11.13774 -9.02893,20.16666 -20.16667,20.16666c-11.13774,0 -20.16666,-9.02892 -20.16666,-20.16666z" fill="#d40000" fill-rule="nonzero" stroke="none" stroke-width="0" stroke-linecap="butt"/><path d="M175.50002,204.16667h10.33334v16z" fill="#d40000" fill-rule="nonzero" stroke="none" stroke-width="0" stroke-linecap="butt"/><path d="M200.33336,160.33333h-4.95834v-10z" data-paper-data="{&quot;index&quot;:null}" fill="#d40000" fill-rule="nonzero" stroke="none" stroke-width="0" stroke-linecap="butt"/><path d="M212.80211,219.91667v-25.33333h22.33333l-9.66666,25.33333z" fill="#d40000" fill-rule="nonzero" stroke="none" stroke-width="0" stroke-linecap="butt"/><path d="M263.46877,175.91667v-9.6h3.13333z" fill="#d40000" fill-rule="nonzero" stroke="none" stroke-width="0" stroke-linecap="butt"/><path d="M252.93544,203.31667v-15h5.2z" fill="#d40000" fill-rule="nonzero" stroke="none" stroke-width="0" stroke-linecap="butt"/><path d="M263.73544,220.71667v-15.8h16.6z" fill="#d40000" fill-rule="nonzero" stroke="none" stroke-width="0" stroke-linecap="butt"/><path d="M267.53542,175.01667c0,-2.40647 1.11402,-6.79946 2.61383,-8.45075c1.70131,-1.87314 4.15639,-1.44925 6.88617,-1.44925c5.13625,0 3.5,4.36375 3.5,9.5c0,5.13625 1.63625,9.1 -3.5,9.1c-5.13625,0 -9.5,-3.56375 -9.5,-8.7z" fill="#d40000" fill-rule="nonzero" stroke="none" stroke-width="0" stroke-linecap="butt"/><path d="M280.135,220.66667v-10.25h4.65042z" data-paper-data="{&quot;index&quot;:null}" fill="#d40000" fill-rule="nonzero" stroke="none" stroke-width="0" stroke-linecap="butt"/><path d="M309.51993,220.35417v-9.875h8.32163z" fill="#d40000" fill-rule="nonzero" stroke="none" stroke-width="0" stroke-linecap="butt"/><path d="M337.19685,220.47917v-10h11.89474z" fill="#d40000" fill-rule="nonzero" stroke="none" stroke-width="0" stroke-linecap="butt"/><path d="M303.37502,164l13.25,-13.25v13.25z" fill="#d40000" fill-rule="nonzero" stroke="none" stroke-width="0" stroke-linecap="butt"/><path d="M365.59724,166.25l-13.58333,10.25v-10.25z" data-paper-data="{&quot;index&quot;:null}" fill="#d40000" fill-rule="nonzero" stroke="none" stroke-width="0" stroke-linecap="butt"/><path d="M172.05374,168.56377v39.43177h-11.01329v-39.43177c0.00492,-0.68444 -0.12282,-1.36335 -0.37618,-1.99919c-0.0212,-0.05294 -0.04328,-0.10553 -0.06624,-0.15772c-0.28553,-0.6533 -0.69046,-1.24759 -1.194,-1.75235c-0.50224,-0.5016 -1.09746,-0.90047 -1.75235,-1.17428c-0.63794,-0.26731 -1.32101,-0.41051 -2.0126,-0.42192c-0.04783,-0.00107 -0.09568,-0.0016 -0.14353,-0.00158c-0.62028,-0.00399 -1.23686,0.09598 -1.82412,0.29574c-0.11209,0.03881 -0.22282,0.08142 -0.33201,0.12776c-0.66771,0.28233 -1.25183,0.67376 -1.75235,1.17428c-0.5016,0.50224 -0.90046,1.09746 -1.17427,1.75235c-0.26731,0.63794 -0.41051,1.32101 -0.42192,2.0126c-0.00108,0.0481 -0.00161,0.09621 -0.00158,0.14432v39.43177h-11.05193v-39.43177c0.00399,-0.62028 -0.09598,-1.23685 -0.29574,-1.82411c-0.03879,-0.11236 -0.0814,-0.22335 -0.12776,-0.33281c-0.28233,-0.66718 -0.67376,-1.2513 -1.17428,-1.75235c-0.50224,-0.5016 -1.09746,-0.90047 -1.75234,-1.17428c-0.63794,-0.26731 -1.32101,-0.41051 -2.0126,-0.42192c-0.04783,-0.00107 -0.09568,-0.0016 -0.14353,-0.00158c-0.62028,-0.00399 -1.23686,0.09598 -1.82411,0.29574c-0.11236,0.03879 -0.22335,0.0814 -0.3328,0.12776c-0.66718,0.28233 -1.25131,0.67376 -1.75235,1.17428c-0.5016,0.50224 -0.90046,1.09746 -1.17427,1.75235c-0.26731,0.63794 -0.41051,1.32101 -0.42192,2.0126c-0.00109,0.0481 -0.00161,0.09621 -0.00158,0.14432v39.43177h-11.05193v-39.43177c-0.0139,-2.21553 0.42516,-4.41053 1.29021,-6.45024c0.86014,-2.01522 2.04099,-3.77389 3.54255,-5.27597c1.5139,-1.50985 3.30543,-2.71277 5.27597,-3.54255c2.01523,-0.86014 4.16531,-1.29021 6.45025,-1.29021c2.05361,0 4.03019,0.36592 5.92975,1.09778c1.89199,0.72682 3.6296,1.80461 5.1214,3.17663c1.48698,-1.36894 3.2178,-2.44649 5.10247,-3.17663c1.88694,-0.73185 3.85722,-1.09778 5.91082,-1.09778c2.21553,-0.01389 4.41053,0.42516 6.45024,1.29021c2.01522,0.86014 3.77362,2.04099 5.27518,3.54255c1.50985,1.5139 2.71277,3.30543 3.54255,5.27597c0.86014,2.01522 1.29021,4.1653 1.29021,6.45024zM264.16397,196.9436v11.05194h-37.85292v-55.22024h37.85292v11.05193h-26.80098v11.05114h18.13703v11.05194h-18.13703v11.01329zM315.45599,174.87837v33.11716h-11.05193v-11.05194h-22.10308v11.05194h-11.01329v-33.11716c0,-3.05464 0.57754,-5.92345 1.73263,-8.60638c1.11332,-2.62012 2.71425,-5.0049 4.71762,-7.02752c2.00916,-2.01572 4.38901,-3.62407 7.0086,-4.73654c2.68241,-1.15509 5.5512,-1.73263 8.60638,-1.73263c3.05464,0 5.92345,0.57754 8.60638,1.73263c2.68241,1.15562 5.02491,2.73446 7.02752,4.73654c2.00261,2.00261 3.58146,4.34511 4.73655,7.02752c1.15509,2.68293 1.73263,5.55174 1.73263,8.60638zM346.57004,163.82723v44.16831h-11.01329v-44.1683h-16.59683v-11.05193h44.16831v11.05193zM220.57373,196.9436v11.05194h-38.66206v-55.22024h11.05194v44.1683zM282.301,185.93031h22.10308v-11.05194c0,-1.5147 -0.28864,-2.94582 -0.86592,-4.29333c-0.55595,-1.31565 -1.36001,-2.51197 -2.36827,-3.52362c-1.00104,-1.00104 -2.17559,-1.79047 -3.52363,-2.36827c-1.34751,-0.57728 -2.77862,-0.86592 -4.29333,-0.86592c-1.5147,0 -2.94608,0.28864 -4.29412,0.86592c-1.31538,0.55604 -2.51141,1.36009 -3.52283,2.36827c-1.00157,1.00156 -1.791,2.17611 -2.36827,3.52362c-0.57781,1.34751 -0.86671,2.77863 -0.86671,4.29333z" fill="#000000" fill-rule="evenodd" stroke="#ff0000" stroke-width="5" stroke-linecap="round"/><path d="M172.05372,168.56375v39.43177h-11.01329v-39.43177c0.00492,-0.68444 -0.12282,-1.36335 -0.37618,-1.99919c-0.0212,-0.05294 -0.04328,-0.10553 -0.06624,-0.15772c-0.28553,-0.6533 -0.69046,-1.24759 -1.194,-1.75235c-0.50224,-0.5016 -1.09746,-0.90047 -1.75235,-1.17428c-0.63794,-0.26731 -1.32101,-0.41051 -2.0126,-0.42192c-0.04783,-0.00107 -0.09568,-0.0016 -0.14353,-0.00158c-0.62028,-0.00399 -1.23686,0.09598 -1.82412,0.29574c-0.11209,0.03881 -0.22282,0.08142 -0.33201,0.12776c-0.66771,0.28233 -1.25183,0.67376 -1.75235,1.17428c-0.5016,0.50224 -0.90046,1.09746 -1.17427,1.75235c-0.26731,0.63794 -0.41051,1.32101 -0.42192,2.0126c-0.00108,0.0481 -0.00161,0.09621 -0.00158,0.14432v39.43177h-11.05193v-39.43177c0.00399,-0.62028 -0.09598,-1.23685 -0.29574,-1.82411c-0.03879,-0.11236 -0.0814,-0.22335 -0.12776,-0.33281c-0.28233,-0.66718 -0.67376,-1.2513 -1.17428,-1.75235c-0.50224,-0.5016 -1.09746,-0.90047 -1.75234,-1.17428c-0.63794,-0.26731 -1.32101,-0.41051 -2.0126,-0.42192c-0.04783,-0.00107 -0.09568,-0.0016 -0.14353,-0.00158c-0.62028,-0.00399 -1.23686,0.09598 -1.82411,0.29574c-0.11236,0.03879 -0.22335,0.0814 -0.3328,0.12776c-0.66718,0.28233 -1.25131,0.67376 -1.75235,1.17428c-0.5016,0.50224 -0.90046,1.09746 -1.17427,1.75235c-0.26731,0.63794 -0.41051,1.32101 -0.42192,2.0126c-0.00109,0.0481 -0.00161,0.09621 -0.00158,0.14432v39.43177h-11.05193v-39.43177c-0.0139,-2.21553 0.42516,-4.41053 1.29021,-6.45024c0.86014,-2.01522 2.04099,-3.77389 3.54255,-5.27597c1.5139,-1.50985 3.30543,-2.71277 5.27597,-3.54255c2.01523,-0.86014 4.16531,-1.29021 6.45025,-1.29021c2.05361,0 4.03019,0.36592 5.92975,1.09778c1.89199,0.72682 3.6296,1.80461 5.1214,3.17663c1.48698,-1.36894 3.2178,-2.44649 5.10247,-3.17663c1.88694,-0.73185 3.85722,-1.09778 5.91082,-1.09778c2.21553,-0.01389 4.41053,0.42516 6.45024,1.29021c2.01522,0.86014 3.77362,2.04099 5.27518,3.54255c1.50985,1.5139 2.71277,3.30543 3.54255,5.27597c0.86014,2.01522 1.29021,4.1653 1.29021,6.45024zM264.16395,196.94358v11.05194h-37.85292v-55.22024h37.85292v11.05193h-26.80098v11.05114h18.13703v11.05194h-18.13703v11.01329zM315.45599,174.87835v33.11716h-11.05193v-11.05194h-22.10308v11.05194h-11.01329v-33.11716c0,-3.05464 0.57754,-5.92345 1.73263,-8.60638c1.11332,-2.62012 2.71425,-5.0049 4.71762,-7.02752c2.00916,-2.01572 4.38901,-3.62407 7.0086,-4.73654c2.68241,-1.15509 5.5512,-1.73263 8.60638,-1.73263c3.05464,0 5.92345,0.57754 8.60638,1.73263c2.68241,1.15562 5.02491,2.73446 7.02752,4.73654c2.00261,2.00261 3.58146,4.34511 4.73655,7.02752c1.15509,2.68293 1.73263,5.55174 1.73263,8.60638zM346.57002,163.82721v44.16831h-11.01329v-44.1683h-16.59683v-11.05193h44.16831v11.05193zM220.57371,196.94358v11.05194h-38.66206v-55.22024h11.05194v44.1683zM282.30098,185.93029h22.10308v-11.05194c0,-1.5147 -0.28864,-2.94582 -0.86592,-4.29333c-0.55595,-1.31565 -1.36001,-2.51197 -2.36827,-3.52362c-1.00104,-1.00104 -2.17559,-1.79047 -3.52363,-2.36827c-1.34751,-0.57728 -2.77862,-0.86592 -4.29333,-0.86592c-1.5147,0 -2.94608,0.28864 -4.29412,0.86592c-1.31538,0.55604 -2.51141,1.36009 -3.52283,2.36827c-1.00157,1.00156 -1.791,2.17611 -2.36827,3.52362c-0.57781,1.34751 -0.86671,2.77863 -0.86671,4.29333z" fill="#ab0000" fill-rule="evenodd" stroke="none" stroke-width="0" stroke-linecap="round"/><path d="M172.05372,167.89708v39.43177h-11.01329v-39.43177c0.00492,-0.68444 -0.12282,-1.36335 -0.37618,-1.99919c-0.0212,-0.05294 -0.04328,-0.10553 -0.06624,-0.15772c-0.28553,-0.6533 -0.69046,-1.24759 -1.194,-1.75235c-0.50224,-0.5016 -1.09746,-0.90047 -1.75235,-1.17428c-0.63794,-0.26731 -1.32101,-0.41051 -2.0126,-0.42192c-0.04783,-0.00107 -0.09568,-0.0016 -0.14353,-0.00158c-0.62028,-0.00399 -1.23686,0.09598 -1.82412,0.29574c-0.11209,0.03881 -0.22282,0.08142 -0.33201,0.12776c-0.66771,0.28233 -1.25183,0.67376 -1.75235,1.17428c-0.5016,0.50224 -0.90046,1.09746 -1.17427,1.75235c-0.26731,0.63794 -0.41051,1.32101 -0.42192,2.0126c-0.00108,0.0481 -0.00161,0.09621 -0.00158,0.14432v39.43177h-11.05193v-39.43177c0.00399,-0.62028 -0.09598,-1.23685 -0.29574,-1.82411c-0.03879,-0.11236 -0.0814,-0.22335 -0.12776,-0.33281c-0.28233,-0.66718 -0.67376,-1.2513 -1.17428,-1.75235c-0.50224,-0.5016 -1.09746,-0.90047 -1.75234,-1.17428c-0.63794,-0.26731 -1.32101,-0.41051 -2.0126,-0.42192c-0.04783,-0.00107 -0.09568,-0.0016 -0.14353,-0.00158c-0.62028,-0.00399 -1.23686,0.09598 -1.82411,0.29574c-0.11236,0.03879 -0.22335,0.0814 -0.3328,0.12776c-0.66718,0.28233 -1.25131,0.67376 -1.75235,1.17428c-0.5016,0.50224 -0.90046,1.09746 -1.17427,1.75235c-0.26731,0.63794 -0.41051,1.32101 -0.42192,2.0126c-0.00109,0.0481 -0.00161,0.09621 -0.00158,0.14432v39.43177h-11.05193v-39.43177c-0.0139,-2.21553 0.42516,-4.41053 1.29021,-6.45024c0.86014,-2.01522 2.04099,-3.77389 3.54255,-5.27597c1.5139,-1.50985 3.30543,-2.71277 5.27597,-3.54255c2.01523,-0.86014 4.16531,-1.29021 6.45025,-1.29021c2.05361,0 4.03019,0.36592 5.92975,1.09778c1.89199,0.72682 3.6296,1.80461 5.1214,3.17663c1.48698,-1.36894 3.2178,-2.44649 5.10247,-3.17663c1.88694,-0.73185 3.85722,-1.09778 5.91082,-1.09778c2.21553,-0.01389 4.41053,0.42516 6.45024,1.29021c2.01522,0.86014 3.77362,2.04099 5.27518,3.54255c1.50985,1.5139 2.71277,3.30543 3.54255,5.27597c0.86014,2.01522 1.29021,4.1653 1.29021,6.45024zM264.16393,196.27691v11.05194h-37.85292v-55.22024h37.85292v11.05193h-26.80098v11.05114h18.13703v11.05194h-18.13703v11.01329zM315.45599,174.21168v33.11716h-11.05193v-11.05194h-22.10308v11.05194h-11.01329v-33.11716c0,-3.05464 0.57754,-5.92345 1.73263,-8.60638c1.11332,-2.62012 2.71425,-5.0049 4.71762,-7.02752c2.00916,-2.01572 4.38901,-3.62407 7.0086,-4.73654c2.68241,-1.15509 5.5512,-1.73263 8.60638,-1.73263c3.05464,0 5.92345,0.57754 8.60638,1.73263c2.68241,1.15562 5.02491,2.73446 7.02752,4.73654c2.00261,2.00261 3.58146,4.34511 4.73655,7.02752c1.15509,2.68293 1.73263,5.55174 1.73263,8.60638zM346.57002,163.16054v44.16831h-11.01329v-44.1683h-16.59683v-11.05193h44.16831v11.05193zM220.57371,196.27691v11.05194h-38.66206v-55.22024h11.05194v44.1683zM282.30098,185.26362h22.10308v-11.05194c0,-1.5147 -0.28864,-2.94582 -0.86592,-4.29333c-0.55595,-1.31565 -1.36001,-2.51197 -2.36827,-3.52362c-1.00104,-1.00104 -2.17559,-1.79047 -3.52363,-2.36827c-1.34751,-0.57728 -2.77862,-0.86592 -4.29333,-0.86592c-1.5147,0 -2.94608,0.28864 -4.29412,0.86592c-1.31538,0.55604 -2.51141,1.36009 -3.52283,2.36827c-1.00157,1.00156 -1.791,2.17611 -2.36827,3.52362c-0.57781,1.34751 -0.86671,2.77863 -0.86671,4.29333z" fill="#ffffff" fill-rule="evenodd" stroke="none" stroke-width="0" stroke-linecap="round"/><g fill="#ffc3c3" fill-rule="nonzero" stroke="none" stroke-width="0" stroke-linecap="butt"><path d="M315.78931,174.21169v3.57585c-6.49252,6.10575 -12.94754,12.25877 -19.32555,18.48937h-13.82946v11.05194h-11.01329v-16.03525c0.37778,-0.35724 0.75475,-0.71495 1.13084,-1.0732c3.31174,-3.15462 6.60221,-6.33176 9.88245,-9.51969v4.56292h22.10308v-11.05194c0,-1.5147 -0.28864,-2.94582 -0.86592,-4.29333c-0.55595,-1.31565 -1.36001,-2.51197 -2.36827,-3.52362c-0.70402,-0.70402 -1.49385,-1.30338 -2.36951,-1.79806c2.507,-2.44121 5.01889,-4.87722 7.54063,-7.30277c0.1896,-0.18237 0.37932,-0.36463 0.56915,-0.54678c0.72868,0.56483 1.4209,1.17506 2.07668,1.83067c2.00261,2.00261 3.58146,4.34511 4.73655,7.02752c1.15509,2.68293 1.73263,5.55174 1.73263,8.60638z"/><path d="M315.78931,207.32885h-2.00826c0.66866,-0.64774 1.33809,-1.29466 2.00826,-1.94082z"/><path d="M160.99757,165.8979c-0.0212,-0.05294 -0.04328,-0.10553 -0.06624,-0.15772c-0.28553,-0.6533 -0.69046,-1.24759 -1.194,-1.75235c-0.50224,-0.5016 -1.09746,-0.90047 -1.75235,-1.17428c-0.63794,-0.26731 -1.32101,-0.41051 -2.0126,-0.42192c-0.04783,-0.00107 -0.09568,-0.0016 -0.14353,-0.00158c-0.62028,-0.00399 -1.23686,0.09598 -1.82412,0.29574c-0.11209,0.03881 -0.22282,0.08142 -0.33201,0.12776c-0.66771,0.28233 -1.25183,0.67376 -1.75235,1.17428c-0.5016,0.50224 -0.90046,1.09746 -1.17427,1.75235c-0.26731,0.63794 -0.41051,1.32101 -0.42192,2.0126c-0.00108,0.0481 -0.00161,0.09621 -0.00158,0.14432v10.57784c-3.70629,4.16316 -7.39124,8.34341 -11.05193,12.54334v-23.12119c0.00399,-0.62028 -0.09598,-1.23685 -0.29574,-1.82411c-0.03879,-0.11236 -0.0814,-0.22335 -0.12776,-0.33281c-0.28233,-0.66718 -0.67376,-1.2513 -1.17428,-1.75235c-0.50224,-0.5016 -1.09746,-0.90047 -1.75234,-1.17428c-0.63794,-0.26731 -1.32101,-0.41051 -2.0126,-0.42192c-0.04783,-0.00107 -0.09568,-0.0016 -0.14353,-0.00158c-0.62028,-0.00399 -1.23686,0.09598 -1.82411,0.29574c-0.11236,0.03879 -0.22335,0.0814 -0.3328,0.12776c-0.66718,0.28233 -1.25131,0.67376 -1.75235,1.17428c-0.5016,0.50224 -0.90046,1.09746 -1.17427,1.75235c-0.26731,0.63794 -0.41051,1.32101 -0.42192,2.0126c-0.00109,0.0481 -0.00161,0.09621 -0.00158,0.14432v35.90839c-0.99756,1.17273 -1.99304,2.34718 -2.98638,3.52338h-8.06554v-28.12678c7.13861,-9.10984 14.43063,-18.10287 21.83997,-27.00089c0.21724,0.07354 0.43349,0.15177 0.64876,0.23471c1.89199,0.72682 3.6296,1.80461 5.1214,3.17663c1.48698,-1.36894 3.2178,-2.44649 5.10247,-3.17663c1.88694,-0.73185 3.85722,-1.09778 5.91082,-1.09778c2.21553,-0.01389 4.41053,0.42516 6.45024,1.29021c2.01522,0.86014 3.77362,2.04099 5.27518,3.54255c0.49278,0.49411 0.95287,1.01779 1.37797,1.56762c-2.59748,2.87722 -5.18659,5.75778 -7.77049,8.63638c-0.04705,-0.16124 -0.10182,-0.32042 -0.16421,-0.47699z"/><path d="M172.38704,207.32886h-11.01329v-11.17342c2.83512,-3.20744 5.68353,-6.40418 8.54381,-9.59149c0.82273,-0.91681 1.64587,-1.83388 2.46948,-2.75109z"/><path d="M226.64435,188.90174c4.35874,-4.92365 8.75096,-9.82184 13.17758,-14.69005h16.01139v4.47627c-2.35357,2.2028 -4.73206,4.39083 -7.1193,6.57567h-11.01772v10.10002c-3.74503,3.47153 -7.4501,6.97943 -11.05194,10.56911z"/><path d="M264.49727,207.32886h-10.30032c3.42786,-3.149 6.87821,-6.27531 10.30032,-9.41468z"/><path d="M264.49727,152.10861v11.05193h-14.51752c3.44264,-3.70439 6.90601,-7.38904 10.39054,-11.05193z"/><path d="M226.64435,152.10861h6.24724c-2.09026,2.26397 -4.17262,4.53533 -6.24724,6.81345z"/><path d="M346.90334,207.32886h-11.01329v-20.96627c3.02029,-2.81796 6.04578,-5.62789 9.07233,-8.43299c0.64682,-0.59949 1.29381,-1.1988 1.94097,-1.79792z"/><path d="M319.29322,163.16055v-11.05193h24.14601c-3.99322,3.67807 -7.98167,7.36144 -11.96378,11.05193z"/><path d="M363.46153,163.16055h-2.49701c0.83216,-0.76521 1.66449,-1.53021 2.49701,-2.29503z"/><path d="M182.24497,207.32886v-34.46102c3.66569,-4.05233 7.34725,-8.09681 11.05194,-12.12175v35.53083h0.41393c-3.15821,3.6837 -6.32014,7.36641 -9.4804,11.05194z"/><path d="M220.90703,196.27692v11.05194h-10.3265c3.17404,-3.69554 6.36588,-7.38013 9.57591,-11.05194z"/></g></g></g></svg>